<svg xmlns="http://www.w3.org/2000/svg" viewBox="225 178 828 828"><path fill="#163a8a" fill-rule="evenodd" d="M 374.873 416.750 C 355.458 437.012, 333.102 472.887, 322.684 500.500 C 294.886 574.175, 317.635 640.702, 384 679.818 C 426.998 705.160, 478.893 717.358, 627.259 736.994 C 679.253 743.875, 704.080 748.352, 724.500 754.530 C 765.289 766.871, 789.354 786.967, 799.406 817.084 C 815.247 864.541, 795.429 934.227, 753.741 977.649 C 749.316 982.258, 745.879 986.213, 746.104 986.437 C 746.328 986.661, 752.359 985.345, 759.506 983.512 C 881.534 952.214, 950.598 842.188, 915.422 735.120 C 896.354 677.083, 856.097 639.232, 788.457 615.742 C 754.715 604.024, 728.327 598.464, 642.500 584.990 C 559.525 571.963, 514.587 563.760, 487 556.606 C 428.595 541.458, 393.607 519.061, 377.486 486.503 C 366.096 463.499, 365.606 442.439, 375.947 420.371 C 378.105 415.767, 379.770 412, 379.648 412 C 379.525 412, 377.377 414.137, 374.873 416.750 M 377.487 891.932 C 338.957 905.655, 308.711 943.463, 307.707 979.160 L 307.500 986.500 345.383 986.762 C 372.513 986.950, 383.654 986.702, 384.633 985.890 C 386.833 984.064, 386.637 893.780, 384.429 891.571 C 383.564 890.707, 382.777 890.033, 382.679 890.073 C 382.580 890.113, 380.244 890.950, 377.487 891.932"/><path fill="#15803d" fill-rule="evenodd" d="M 944.500 202.610 C 847.061 228.215, 769.531 251.733, 766.299 256.667 C 763.626 260.746, 765.303 263.508, 773.259 268.125 C 777.242 270.436, 786.319 275.930, 793.432 280.334 L 806.364 288.340 796.770 297.567 C 775.792 317.743, 753.349 328.191, 725.265 330.853 C 719.894 331.362, 675.450 331.834, 626.500 331.902 C 533.529 332.031, 528.790 332.219, 507.760 336.615 C 466.403 345.261, 419.167 371.783, 387.044 404.393 L 379.587 411.962 380.777 420.123 C 386.122 456.794, 426.070 482.098, 486.304 486.965 C 502.975 488.312, 658.474 488.332, 675.605 486.989 C 716.727 483.766, 751.680 471.059, 789.500 445.585 C 803.960 435.845, 813.248 428.518, 848.500 399.036 C 879.756 372.895, 889.576 364.984, 890.697 365.040 C 891.138 365.062, 898.925 375.061, 908 387.259 C 927.956 414.083, 929.585 416, 932.429 416 C 938.576 416, 939.552 412.330, 948.923 353.947 C 958.116 296.673, 960.100 283.773, 964.523 252.500 C 966.934 235.450, 969.595 217.247, 970.437 212.050 C 973.045 195.947, 971.707 195.460, 944.500 202.610 M 546.110 776.396 C 540.877 779.296, 541.073 775.206, 541.035 882.139 C 541.001 978.782, 541.057 981.849, 542.912 984.139 L 544.823 986.500 581.500 986.500 L 618.177 986.500 620.088 984.139 C 623.122 980.393, 623.064 795.257, 620.027 790.277 C 617.765 786.567, 619.457 787.059, 593.500 782.555 C 582.500 780.646, 568.775 778.167, 563 777.045 C 550.786 774.673, 549.319 774.617, 546.110 776.396 M 661.913 798.282 C 657.996 801.290, 658 801.184, 658 892.823 C 658 978.887, 658.062 981.855, 659.910 984.139 C 661.787 986.459, 662.168 986.505, 682.102 986.810 C 706.447 987.182, 705.755 987.329, 713.231 980.199 C 734.025 960.365, 747.209 924.142, 749.518 880.500 C 751.992 833.754, 741.691 821.894, 680.409 800.927 C 668.379 796.811, 664.544 796.262, 661.913 798.282 M 475.500 831.554 C 466.150 835.084, 454 839.628, 448.500 841.650 C 431.546 847.883, 427.470 850.672, 423.879 858.500 C 420.977 864.827, 421.007 980.552, 423.912 984.139 L 425.823 986.500 462.500 986.500 L 499.177 986.500 501.088 984.139 C 502.933 981.861, 503 979.126, 503 906.312 L 503 830.846 500.077 827.923 C 496.147 823.993, 495.119 824.145, 475.500 831.554"/></svg>
